<svg id="Capa_1" enable-background="new 0 0 512 512" height="512" viewBox="0 0 512 512" width="512" xmlns="http://www.w3.org/2000/svg"><g><path d="m326.75 46.529-1.555 2.736v25.498l1.156 2.683h24.034l2.845-2.683-3.045-10.656.634-7.231 11.671-7.865 1.55-2.462h.013v-.02z" fill="#dbedff"/><path d="m349.678 189.063 19.536 1.826 15.845-3.671-15.591-56.129-6.623-5.058c-8.342 1.457-15.995 4.917-22.438 9.878-4.383 3.374-6.217 9.118-4.843 14.475l8.509 33.176z" fill="#1ca8ff"/><path d="m470.931 361.818h-9.129l-26.876 22.261-10.91 30.663 4.831 27.756 13.183 19.943 15.477 7.104 11.681 3.374c24.625-6.61 42.812-29.116 42.812-55.799 0-26.048-17.333-48.117-41.069-55.302z" fill="#7b6c79"/><path d="m302.107 49.138v25.625l2.334 2.683h21.91c1.994-4.935 3.115-10.316 3.115-15.966 0-5.264-.972-10.296-2.716-14.951h-21.768z" fill="#b5dcff"/><path d="m382.977 179.721-1.856 5.631c-5.928 2.018-12.275 3.129-18.886 3.129-2.941 0-5.831-.219-8.655-.641-3.927-.586-7.387-2.616-9.832-5.55l8.94 34.856c1.397 5.448 5.9 9.575 11.463 10.405 2.478.37 5.015.562 7.597.562 5.802 0 11.374-.975 16.577-2.746l3.979-12.075z" fill="#0094fd"/><path d="m364.478 330 9.381-9.914 30.537-17.739 9.224-2.43-6.518-19.39-5.814-4.607c-8.12 10.397-24.087 31.917-39.261 52.535z" fill="#fbc700"/><path d="m325.717 378.064 9.399 6.015h35.215l2.636-6.015c9.088-18.832 24.538-34.029 43.539-42.818 0 0-.001 0-.002.001v-.001h.002l5.494-10.4-9.693-28.836c-18.834 6.577-35.79 17.447-49.586 31.502-19.02 25.84-37.004 50.552-37.004 50.552z" fill="#eab900"/><path d="m429.863 417.121c0-26.049 17.333-48.118 41.069-55.302-5.292-1.602-10.898-2.472-16.706-2.472-31.857 0-57.775 25.918-57.775 57.775s25.918 57.775 57.775 57.775c5.808 0 11.414-.871 16.706-2.472-23.736-7.186-41.069-29.255-41.069-55.304z" fill="#665e68"/><path d="m211.818 378.064v4.203l7.525 34.854h131.562c7.082 0 13.022-5.259 13.981-12.276 1.295-9.472 4.073-18.476 8.081-26.78h-161.149z" fill="#7b6c79"/><path d="m219.526 404.358-.405-4.229c-1.484-7.751-3.967-15.151-7.303-22.064h-53.788c3.336 6.914 5.818 14.314 7.303 22.064l.405 4.229c.693 7.237 6.773 12.763 14.044 12.763h53.788c-7.27 0-13.35-5.526-14.044-12.763z" fill="#665e68"/><path d="m407.834 301.441 28.023-7.382 2.46-4.166-59.293-231.184c-2.222-8.665-11.044-13.893-19.715-11.666-8.665 2.222-13.889 11.049-11.666 19.714z" fill="#ffd500"/><path d="m416.505 335.247c9.664-4.471 20.244-7.275 31.379-8.053l-9.567-37.302c-10.902 1.373-21.422 4.137-31.363 8.115z" fill="#fbc700"/><g><path d="m350.906 424.733h-171.124c-11.252 0-20.547-8.447-21.621-19.648l-.37-3.867c-7.57-38.646-41.58-66.657-81.002-66.657-24.481 0-47.568 10.813-63.34 29.666-2.697 3.225-7.498 3.651-10.722.953-3.224-2.697-3.651-7.497-.954-10.721 18.673-22.32 46.015-35.121 75.016-35.121 46.829 0 87.211 33.375 96.019 79.358.045.234.078.47.101.707l.405 4.23c.321 3.35 3.102 5.877 6.467 5.877h171.123c3.227 0 5.996-2.449 6.44-5.696 6.584-48.159 48.233-84.476 96.88-84.476 10.934 0 21.68 1.802 31.939 5.356 3.972 1.376 6.077 5.712 4.701 9.684s-5.711 6.076-9.684 4.701c-8.653-2.998-17.722-4.517-26.956-4.517-41.074 0-76.24 30.659-81.798 71.315-1.468 10.749-10.721 18.856-21.52 18.856z" fill="#dbedff"/></g><path d="m468.521 396.166h-2.514l-9.768 8.174-4.694 7.104 1.269 18.521 7.104 6.597 8.603 1.513c6.685-4.575 11.082-12.26 11.082-20.955 0-8.694-4.397-16.379-11.082-20.954z" fill="#60b9fe"/><path d="m457.439 417.121c0-8.695 4.397-16.38 11.082-20.955-4.074-2.788-8.997-4.423-14.296-4.423-13.993 0-25.378 11.384-25.378 25.378 0 13.993 11.384 25.378 25.378 25.378 5.299 0 10.221-1.635 14.296-4.423-6.685-4.576-11.082-12.26-11.082-20.955z" fill="#1ca8ff"/><path d="m93.496 361.818h-9.129l-26.876 22.261-10.91 30.663 4.831 27.756 13.183 19.943 15.477 7.104 11.681 3.374c24.625-6.61 42.812-29.116 42.812-55.799-.001-26.048-17.334-48.117-41.069-55.302z" fill="#7b6c79"/><path d="m52.427 417.121c0-26.049 17.333-48.118 41.069-55.302-5.292-1.602-10.898-2.472-16.706-2.472-31.857 0-57.775 25.918-57.775 57.775s25.918 57.775 57.775 57.775c5.808 0 11.414-.871 16.706-2.472-23.736-7.186-41.069-29.255-41.069-55.304z" fill="#665e68"/><path d="m91.085 396.166h-2.514l-9.768 8.174-4.694 7.104 1.269 18.521 7.104 6.597 8.603 1.513c6.685-4.575 11.082-12.26 11.082-20.955 0-8.694-4.397-16.379-11.082-20.954z" fill="#60b9fe"/><path d="m80.003 417.121c0-8.695 4.397-16.38 11.082-20.955-4.074-2.788-8.997-4.423-14.296-4.423-13.994 0-25.378 11.384-25.378 25.378 0 13.993 11.384 25.378 25.378 25.378 5.299 0 10.221-1.635 14.296-4.423-6.685-4.576-11.082-12.26-11.082-20.955z" fill="#1ca8ff"/><path d="m292.592 40.397-6.94 10.602-1.517 16.069 4.229 10.379 3.383 3.829 5.338 2.101c7.798-4.112 13.116-12.295 13.116-21.724 0-9.085-4.939-17.011-12.274-21.256z" fill="#7b6c79"/><path d="m285.652 61.653c0-9.085 4.939-17.011 12.274-21.256-3.612-2.09-7.801-3.292-12.274-3.292-13.558 0-24.549 10.991-24.549 24.549s10.991 24.549 24.549 24.549c4.473 0 8.663-1.202 12.274-3.292-7.335-4.247-12.274-12.173-12.274-21.258z" fill="#665e68"/></g></svg>